<svg width="64" height="65" viewBox="0 0 64 65" fill="none" xmlns="http://www.w3.org/2000/svg">
<path d="M18.6989 0.856445C8.38931 0.856445 0 9.24576 0 19.5554V45.4461C0 55.7557 8.38931 64.1451 18.6989 64.1451H44.5897C54.8993 64.1451 63.2886 55.7557 63.2886 45.4461V19.5554C63.2886 9.24576 54.8993 0.856445 44.5897 0.856445H18.6989ZM18.6989 3.7332H44.5897C53.3444 3.7332 60.4119 10.8007 60.4119 19.5554V45.4461C60.4119 54.2008 53.3444 61.2683 44.5897 61.2683H18.6989C9.94425 61.2683 2.87675 54.2008 2.87675 45.4461V19.5554C2.87675 10.8007 9.94425 3.7332 18.6989 3.7332ZM48.9048 12.3635C48.1419 12.3635 47.4102 12.6666 46.8707 13.206C46.3312 13.7455 46.0281 14.4773 46.0281 15.2402C46.0281 16.0032 46.3312 16.7349 46.8707 17.2744C47.4102 17.8139 48.1419 18.117 48.9048 18.117C49.6678 18.117 50.3995 17.8139 50.939 17.2744C51.4785 16.7349 51.7816 16.0032 51.7816 15.2402C51.7816 14.4773 51.4785 13.7455 50.939 13.206C50.3995 12.6666 49.6678 12.3635 48.9048 12.3635ZM31.6443 16.6786C22.923 16.6786 15.8222 23.7795 15.8222 32.5007C15.8222 41.222 22.923 48.3229 31.6443 48.3229C40.3656 48.3229 47.4665 41.222 47.4665 32.5007C47.4665 23.7795 40.3656 16.6786 31.6443 16.6786ZM31.6443 19.5554C38.8109 19.5554 44.5897 25.3342 44.5897 32.5007C44.5897 39.6673 38.8109 45.4461 31.6443 45.4461C24.4777 45.4461 18.6989 39.6673 18.6989 32.5007C18.6989 25.3342 24.4777 19.5554 31.6443 19.5554Z" fill="#2E3840"/>
</svg>
