<svg width="73" height="61" viewBox="0 0 73 61" fill="none" xmlns="http://www.w3.org/2000/svg">
<path d="M49.6461 0.991211C41.0439 0.991211 34.0487 7.98645 34.0487 16.5886C34.0487 17.1055 34.1779 17.6112 34.2285 18.1169C23.5924 17.0999 14.1867 11.9757 7.79832 4.13766C7.50053 3.76121 7.0398 3.55894 6.55659 3.59265C6.07901 3.62636 5.65199 3.90168 5.416 4.31746C4.07314 6.62673 3.30339 9.28436 3.30339 12.1386C3.30339 15.5941 4.53949 18.7574 6.44984 21.3532C6.07901 21.1903 5.67446 21.1004 5.3261 20.9038C4.88223 20.6678 4.34846 20.679 3.91582 20.9375C3.48318 21.1959 3.21911 21.6623 3.21349 22.1623V22.3421C3.21349 27.6405 5.95539 32.2422 10.0008 35.0628C9.95588 35.0572 9.91093 35.074 9.86598 35.0628C9.37154 34.9785 8.87148 35.1527 8.53998 35.5291C8.20848 35.9056 8.10172 36.4281 8.24781 36.9057C9.85475 41.9007 13.9564 45.7158 19.0356 47.1092C14.9902 49.514 10.2986 50.9299 5.23621 50.9299C4.14057 50.9299 3.08988 50.8737 2.04481 50.7501C1.37057 50.6602 0.72442 51.0535 0.499674 51.694C0.269308 52.3346 0.522148 53.0481 1.10087 53.4021C7.59043 57.5655 15.2936 60.0096 23.5755 60.0096C36.9985 60.0096 47.5279 54.4022 54.5905 46.39C61.6532 38.3778 65.3334 27.972 65.3334 18.2517C65.3334 17.8416 65.2997 17.4427 65.2885 17.0381C67.9236 15.021 70.2778 12.6556 72.1208 9.89117C72.486 9.3574 72.4466 8.64383 72.0253 8.14939C71.6095 7.65495 70.9071 7.50324 70.3228 7.77856C69.5811 8.11006 68.7159 8.14377 67.9405 8.40785C68.9631 7.04251 69.8396 5.57042 70.3677 3.91292C70.5475 3.34543 70.3509 2.72176 69.8845 2.35093C69.4182 1.98571 68.7664 1.94076 68.2551 2.24979C65.7998 3.70503 63.0803 4.72762 60.2092 5.35129C57.4223 2.74423 53.7534 0.991211 49.6461 0.991211ZM49.6461 3.86797C53.3151 3.86797 56.6301 5.43557 58.9506 7.9134C59.299 8.273 59.8103 8.4247 60.2991 8.31795C62.1757 7.94712 63.9569 7.40211 65.693 6.69977C64.6929 8.04825 63.4568 9.20008 62.0072 10.071C61.3498 10.3912 61.0408 11.1498 61.2824 11.8408C61.5183 12.5263 62.2375 12.9253 62.9511 12.7679C64.3895 12.5938 65.6705 12.0094 67.0415 11.6442C65.811 12.9758 64.4625 14.1782 62.9961 15.2401C62.5971 15.5323 62.378 16.0043 62.4117 16.4987C62.4342 17.0831 62.4567 17.6618 62.4567 18.2517C62.4567 27.2416 59.0068 37.0012 52.433 44.4572C45.8591 51.9132 36.2063 57.1329 23.5755 57.1329C17.8389 57.1329 12.4225 55.8631 7.52862 53.6268C13.5968 53.1605 19.193 51.0142 23.7104 47.4688C24.1823 47.0923 24.3678 46.4631 24.1767 45.8899C23.9857 45.3168 23.4575 44.9235 22.8563 44.9067C18.1142 44.8224 14.1418 42.0636 12.0236 38.1643C12.1022 38.1643 12.1696 38.1643 12.2483 38.1643C13.6698 38.1643 15.0745 37.9845 16.3836 37.6249C17.0129 37.4395 17.4456 36.8551 17.4231 36.1978C17.4006 35.5404 16.9343 34.9785 16.2937 34.838C11.1751 33.8042 7.33759 29.6352 6.44984 24.4547C7.89945 24.9548 9.38278 25.3481 10.9897 25.3987C11.6471 25.438 12.2427 25.0279 12.4449 24.4042C12.6472 23.7805 12.4 23.095 11.8438 22.7467C8.42761 20.4599 6.18014 16.5661 6.18014 12.1386C6.18014 10.498 6.60716 8.99219 7.16903 7.55381C14.3609 15.448 24.4296 20.6902 35.8017 21.2633C36.2512 21.2858 36.6895 21.1004 36.9816 20.7577C37.2738 20.4093 37.3862 19.9486 37.2851 19.5103C37.0659 18.5776 36.9255 17.5887 36.9255 16.5886C36.9255 9.54282 42.6003 3.86797 49.6461 3.86797Z" fill="#2E3840"/>
</svg>
