<svg class="hover:text-gray-600" width="62" height="61" viewBox="0 0 62 61" fill="none" xmlns="http://www.w3.org/2000/svg">
<path d="M7.8374 0.285156C3.88255 0.285156 0.645508 3.5222 0.645508 7.47705V53.5051C0.645508 57.46 3.88255 60.697 7.8374 60.697H32.0482C32.2035 60.7227 32.362 60.7227 32.5174 60.697H40.6785C40.8338 60.7227 40.9923 60.7227 41.1476 60.697H53.8655C57.8203 60.697 61.0574 57.46 61.0574 53.5051V7.47705C61.0574 3.5222 57.8203 0.285156 53.8655 0.285156H7.8374ZM7.8374 3.16191H53.8655C56.2654 3.16191 58.1806 5.07714 58.1806 7.47705V53.5051C58.1806 55.905 56.2654 57.8203 53.8655 57.8203H42.3585V37.683H47.8535L49.8678 27.6143H42.3585V24.7376C42.3585 23.9357 42.4348 23.873 42.704 23.6981C42.9732 23.5232 43.8052 23.2992 45.2352 23.2992H49.5503V15.1999L48.73 14.8094C48.73 14.8094 45.426 13.2306 40.9201 13.2306C37.6837 13.2306 35.025 14.52 33.3237 16.6467C31.6223 18.7734 30.8514 21.6211 30.8514 24.7376V27.6143H26.5363V37.683H30.8514V57.8203H7.8374C5.43749 57.8203 3.52226 55.905 3.52226 53.5051V7.47705C3.52226 5.07714 5.43749 3.16191 7.8374 3.16191ZM40.9201 16.1073C43.9106 16.1073 45.7924 16.7667 46.6736 17.1159V20.4224H45.2352C43.5799 20.4224 42.2534 20.5594 41.1364 21.2849C40.0194 22.0104 39.4817 23.3876 39.4817 24.7376V30.4911H46.3561L45.4937 34.8062H39.4817V57.8203H33.7282V34.8062H29.4131V30.4911H33.7282V24.7376C33.7282 22.1006 34.3957 19.9139 35.5711 18.4447C36.7465 16.9754 38.4029 16.1073 40.9201 16.1073Z" fill="#2E3840"/>
</svg>
