<svg width="73" height="73" viewBox="0 0 73 73" fill="none" xmlns="http://www.w3.org/2000/svg">
<path d="M36.6877 3.41797C18.4336 3.41797 3.60498 18.2466 3.60498 36.5007C3.60498 54.7547 18.4336 69.5833 36.6877 69.5833C54.9417 69.5833 69.7703 54.7547 69.7703 36.5007C69.7703 18.2466 54.9417 3.41797 36.6877 3.41797ZM36.6877 6.29472C53.387 6.29472 66.8936 19.8013 66.8936 36.5007C66.8936 53.2 53.387 66.7066 36.6877 66.7066C19.9884 66.7066 6.48174 53.2 6.48174 36.5007C6.48174 19.8013 19.9884 6.29472 36.6877 6.29472ZM23.7423 17.8017C21.3761 17.8017 19.4271 19.7507 19.4271 22.1169C19.4271 24.483 21.3761 26.432 23.7423 26.432C26.1084 26.432 28.0574 24.483 28.0574 22.1169C28.0574 19.7507 26.1084 17.8017 23.7423 17.8017ZM23.7423 20.6785C24.5537 20.6785 25.1806 21.3054 25.1806 22.1169C25.1806 22.9283 24.5537 23.5553 23.7423 23.5553C22.9308 23.5553 22.3039 22.9283 22.3039 22.1169C22.3039 21.3054 22.9308 20.6785 23.7423 20.6785ZM20.8655 27.8704C20.484 27.8704 20.1182 28.022 19.8485 28.2917C19.5787 28.5615 19.4272 28.9273 19.4271 29.3088V50.8844C19.4272 51.2659 19.5787 51.6317 19.8485 51.9015C20.1182 52.1712 20.484 52.3228 20.8655 52.3228H26.619C27.0005 52.3228 27.3663 52.1712 27.6361 51.9015C27.9058 51.6317 28.0574 51.2659 28.0574 50.8844V29.3088C28.0574 28.9273 27.9058 28.5615 27.6361 28.2917C27.3663 28.022 27.0005 27.8704 26.619 27.8704H20.8655ZM32.3725 27.8704C31.9911 27.8704 31.6252 28.022 31.3555 28.2917C31.0857 28.5615 30.9342 28.9273 30.9342 29.3088V50.8844C30.9342 51.2659 31.0857 51.6317 31.3555 51.9015C31.6252 52.1712 31.9911 52.3228 32.3725 52.3228H38.126C38.5075 52.3228 38.8733 52.1712 39.1431 51.9015C39.4128 51.6317 39.5644 51.2659 39.5644 50.8844V40.0966C39.5644 38.1123 41.1761 36.5007 43.1604 36.5007C45.1447 36.5007 46.7563 38.1123 46.7563 40.0966V43.6925V50.8844C46.7563 51.2659 46.9079 51.6317 47.1776 51.9015C47.4474 52.1712 47.8132 52.3228 48.1947 52.3228H53.9482C54.3297 52.3228 54.6955 52.1712 54.9652 51.9015C55.235 51.6317 55.3865 51.2659 55.3866 50.8844V38.6582C55.3866 32.7172 50.5398 27.8704 44.5987 27.8704C42.7483 27.8704 41.0887 28.469 39.5644 29.2947C39.5607 28.9157 39.4075 28.5534 39.1382 28.2867C38.8688 28.02 38.5051 27.8704 38.126 27.8704H32.3725ZM22.3039 30.7471H25.1806V49.446H22.3039V30.7471ZM33.8109 30.7471H36.6877V31.9214C36.6877 32.2036 36.7707 32.4794 36.9263 32.7147C37.0819 32.95 37.3033 33.1344 37.5628 33.2449C37.8224 33.3554 38.1087 33.3871 38.3862 33.3361C38.6637 33.2851 38.92 33.1536 39.1234 32.9581C40.5485 31.589 42.4652 30.7471 44.5987 30.7471C48.9852 30.7471 52.5098 34.2717 52.5098 38.6582V49.446H49.6331V43.6925V40.0966C49.6331 36.5431 46.7138 33.6239 43.1604 33.6239C39.6069 33.6239 36.6877 36.5431 36.6877 40.0966V49.446H33.8109V30.7471Z" fill="#2E3840"/>
</svg>
