<svg width="59" height="54" viewBox="0 0 59 54" fill="none" xmlns="http://www.w3.org/2000/svg">
<path d="M44.8878 0.758757C37.7797 1.16393 37.0144 7.32161 31.1769 7.32161C25.3393 7.32161 24.569 1.16393 17.4609 0.758757C11.6584 0.428614 6.96634 4.23527 6.24102 4.84553C5.7208 5.28572 5.22558 5.74592 4.76538 6.23614C5.22558 6.11609 5.68578 6.04105 6.13097 6.02605C12.9739 5.77594 18.4663 9.11739 21.3576 12.1237C23.9387 13.8294 26.3448 16.0754 31.1719 16.0754C36.9094 15.8653 40.2708 12.749 43.1571 10.9182C45.4481 9.46254 49.4948 10.7231 50.4802 11.5484C50.8004 11.8136 51.0955 12.1037 51.3706 12.4088C51.5507 12.2137 51.7308 12.0187 51.9059 11.8186C52.131 11.5585 52.3511 11.2933 52.5662 11.0182C54.0518 9.12239 55.2173 6.95645 55.8676 4.64545C54.6421 3.66502 50.2351 0.453624 44.8878 0.758757Z" fill="url(#paint0_linear_526_654)"/>
<path d="M58.6488 14.4346C57.7684 16.1954 56.4278 17.461 55.5774 18.2363C54.9221 18.8366 54.2919 19.4268 53.5766 19.962C53.5766 19.962 53.1314 20.2972 53.0763 20.3372C52.266 20.9275 51.6157 21.3526 50.7403 21.8429C49.0296 22.8083 47.0937 23.3135 45.5781 24.559C44.0824 25.7946 42.6168 27.0351 40.871 27.9355C39.8256 28.4757 34.8034 30.1064 34.7534 29.5212C34.9685 29.4212 35.1836 29.3161 35.4037 29.2161C35.7388 29.061 35.9889 28.9459 36.069 28.9109C36.4041 28.7609 36.9743 28.5007 38.0098 28.0205C35.9889 28.7158 35.1035 29.016 34.7284 29.141H34.7084C34.5933 29.186 34.1381 29.3311 33.5429 29.4662C32.9976 29.5862 32.5174 29.6512 31.9622 29.6362C31.677 29.6312 31.3419 29.4161 31.3219 29.2911C31.2168 28.7008 37.7747 27.0601 37.7647 27.0251C37.7547 26.9801 33.798 28.0005 33.798 28.0005C32.6625 28.2907 30.9667 28.7309 29.8412 29.021L27.4202 29.2611C27.3252 29.2761 27.2301 29.2811 27.1451 29.2761C26.4898 29.2561 26.1446 28.4857 26.7649 28.2757C30.4565 27.3502 34.7884 26.2498 34.7684 26.1497C34.7384 26.0197 27.3902 27.6504 27.075 27.2502C27.015 27.1502 26.89 27.0251 27.2651 26.775C29.171 25.5044 31.3619 25.8646 33.0176 24.1589C33.3028 23.9738 34.9085 22.5232 35.4087 21.9579C35.6138 21.7278 35.8339 21.3226 35.6438 21.0325C35.4687 20.7674 35.1436 20.7724 34.8584 20.8024C34.5583 20.8324 33.3528 21.2726 33.0827 21.4127C32.7975 21.5527 31.8071 22.178 31.547 22.213C31.2869 22.248 30.8767 22.4131 30.7466 22.073C30.6366 21.7828 30.9417 21.5677 31.1168 21.3827C31.2919 21.1976 31.462 20.9925 31.647 20.8174C32.4724 20.0471 33.5078 19.4368 34.6283 18.9466C35.0035 18.7815 35.3887 18.6315 35.7738 18.4964C37.3195 17.9212 38.9352 17.7661 40.5759 17.7211C41.6664 17.6911 42.8119 17.9412 43.8874 17.8761C44.8728 17.8161 45.8632 16.9657 46.6736 16.4405C48.3943 15.315 49.0596 14.9349 51.2706 12.5288C51.2706 12.5288 51.5057 12.2737 51.5607 12.2087C51.6757 12.0836 51.7908 11.9536 51.9058 11.8185C52.1309 11.5584 52.351 11.2933 52.5661 11.0182C54.0518 9.12233 55.2173 6.95639 55.8676 4.64539C55.9676 4.72542 56.0426 4.79045 56.0977 4.83547C56.0977 4.83547 56.0977 4.83547 56.1077 4.84547C58.0885 6.82633 59.6892 12.3587 58.6488 14.4346Z" fill="url(#paint1_linear_526_654)"/>
<path d="M34.1982 52.6963C33.0377 53.1115 32.0122 53.2615 31.0368 53.2615C30.9268 53.2615 30.8167 53.2615 30.7067 53.2565H30.6266C27.8304 53.1064 24.9842 51.7008 21.4026 48.6945C19.2517 46.8888 16.7556 44.4277 13.9894 41.3814C11.8485 39.0253 8.40198 35.0586 4.13513 29.5312C4.09011 29.4762 4.05509 29.4262 4.03008 29.3911C1.06879 25.8246 -0.336819 21.3226 0.0683572 16.7006C0.218422 14.9799 0.613594 13.3142 1.23887 11.7485C2.04922 9.71259 3.23974 7.84678 4.7654 6.23608C5.2256 6.11603 5.6858 6.041 6.13099 6.02599C12.974 5.77588 18.4664 9.11733 21.3576 12.1236C20.6673 11.6684 19.957 11.2483 19.1917 10.9181C17.2658 10.0978 13.9444 10.2128 11.8685 11.5484C10.5829 12.3737 9.8276 13.7694 9.30737 15.16C9.03726 15.8903 8.86218 16.6656 8.79215 17.461C8.72712 18.2163 8.75213 18.9516 8.86718 19.6669C8.85718 19.752 8.85217 19.842 8.84217 19.927C8.58706 23.0234 9.11729 26.4649 10.3228 31.0869C11.4333 35.3587 13.3241 38.8403 16.4505 42.3418C17.2958 43.2872 19.3417 45.8833 22.4331 48.2393C25.4294 50.5253 29.4011 52.5862 34.2032 52.6963H34.1982Z" fill="url(#paint2_linear_526_654)"/>
<path d="M52.8314 33.9681C50.9556 37.4697 49.4549 39.2204 47.204 41.9716C42.787 47.369 39.1405 50.0751 36.4793 51.6158C35.659 52.091 34.9036 52.4462 34.1983 52.6963C29.3962 52.5862 25.4245 50.5303 22.4282 48.2444C19.3419 45.8833 17.291 43.2922 16.4456 42.3418C13.3192 38.8403 11.4334 35.3587 10.3179 31.0869C9.11241 26.4649 8.58218 23.0234 8.83729 19.927C8.8473 19.842 8.8523 19.752 8.8623 19.6669C9.10741 21.1676 9.74769 22.5632 10.7631 23.7837C10.7631 23.7837 20.3723 37.1395 22.5082 39.2755C26.1598 42.927 29.2962 44.0875 32.0024 43.8725C32.0724 43.8725 32.1424 43.8624 32.2125 43.8524C32.2625 43.8474 32.3125 43.8424 32.3625 43.8374C32.4025 43.8324 32.4476 43.8274 32.4876 43.8224C32.5126 43.8224 32.5376 43.8174 32.5626 43.8124C32.6126 43.8074 32.6576 43.7974 32.7077 43.7874C32.7677 43.7774 32.8227 43.7674 32.8827 43.7574C34.1183 43.5173 35.2638 42.9971 36.3242 42.3168C36.4243 42.2517 36.5243 42.1867 36.6244 42.1217C36.7994 42.0016 36.9745 41.8766 37.1496 41.7465C37.1696 41.7315 37.1896 41.7165 37.2096 41.7015C37.2346 41.6815 37.2596 41.6665 37.2797 41.6465C37.3347 41.6065 37.3897 41.5614 37.4447 41.5214C38.125 41.0012 38.7953 40.426 39.3706 39.8007H39.3756C40.0909 39.0854 40.7612 38.35 41.3814 37.6497C42.0717 37.3596 42.9771 37.4797 43.3473 38.12C43.5274 38.4301 43.5674 38.8303 43.8275 39.0804C44.2427 39.4755 44.918 39.2554 45.4232 38.9903C47.8993 37.6848 50.0102 35.6839 51.4508 33.2828C51.6759 32.9077 51.981 32.4675 52.4162 32.5025C52.6113 32.5175 52.7814 32.6376 52.8914 32.7976C52.9665 32.9077 53.0215 33.0327 53.0415 33.1628C53.0965 33.4879 52.9665 33.683 52.8114 33.9731L52.8314 33.9681Z" fill="url(#paint3_linear_526_654)"/>
<path d="M49.3897 33.2128C49.8372 33.2128 50.2 32.85 50.2 32.4025C50.2 31.9549 49.8372 31.5921 49.3897 31.5921C48.9422 31.5921 48.5793 31.9549 48.5793 32.4025C48.5793 32.85 48.9422 33.2128 49.3897 33.2128Z" fill="url(#paint4_linear_526_654)"/>
<path d="M55.3924 35.964C55.8399 35.964 56.2027 35.6012 56.2027 35.1537C56.2027 34.7061 55.8399 34.3433 55.3924 34.3433C54.9448 34.3433 54.582 34.7061 54.582 35.1537C54.582 35.6012 54.9448 35.964 55.3924 35.964Z" fill="url(#paint5_linear_526_654)"/>
<path d="M52.5161 40.0908C53.1708 40.0908 53.7016 39.56 53.7016 38.9053C53.7016 38.2506 53.1708 37.7198 52.5161 37.7198C51.8613 37.7198 51.3306 38.2506 51.3306 38.9053C51.3306 39.56 51.8613 40.0908 52.5161 40.0908Z" fill="url(#paint6_linear_526_654)"/>
<path d="M46.1384 37.2146C46.7931 37.2146 47.3239 36.6838 47.3239 36.0291C47.3239 35.3743 46.7931 34.8436 46.1384 34.8436C45.4837 34.8436 44.9529 35.3743 44.9529 36.0291C44.9529 36.6838 45.4837 37.2146 46.1384 37.2146Z" fill="url(#paint7_linear_526_654)"/>
<path d="M55.3924 30.3416C56.4615 30.3416 57.3282 29.4749 57.3282 28.4058C57.3282 27.3366 56.4615 26.4699 55.3924 26.4699C54.3232 26.4699 53.4565 27.3366 53.4565 28.4058C53.4565 29.4749 54.3232 30.3416 55.3924 30.3416Z" fill="url(#paint8_linear_526_654)"/>
<defs>
<linearGradient id="paint0_linear_526_654" x1="22.6331" y1="-6.00418" x2="48.8295" y2="33.0228" gradientUnits="userSpaceOnUse">
<stop stop-color="#FF0303"/>
<stop offset="0.1" stop-color="#F60505"/>
<stop offset="0.25" stop-color="#DF0A0C"/>
<stop offset="0.45" stop-color="#BA1417"/>
<stop offset="0.67" stop-color="#852126"/>
<stop offset="0.92" stop-color="#443239"/>
<stop offset="1" stop-color="#2E3840"/>
</linearGradient>
<linearGradient id="paint1_linear_526_654" x1="59.9894" y1="4.28523" x2="26.6349" y2="35.3437" gradientUnits="userSpaceOnUse">
<stop stop-color="#F9DBBB"/>
<stop offset="0.04" stop-color="#FAAF95"/>
<stop offset="0.1" stop-color="#FB7E6B"/>
<stop offset="0.16" stop-color="#FC5548"/>
<stop offset="0.21" stop-color="#FD352D"/>
<stop offset="0.27" stop-color="#FE1E19"/>
<stop offset="0.32" stop-color="#FE100E"/>
<stop offset="0.36" stop-color="#FF0C0A"/>
<stop offset="0.49" stop-color="#FD2F28"/>
<stop offset="0.76" stop-color="#FB8975"/>
<stop offset="1" stop-color="#F9DBBB"/>
</linearGradient>
<linearGradient id="paint2_linear_526_654" x1="17.1008" y1="16.7557" x2="17.1008" y2="-0.0216388" gradientUnits="userSpaceOnUse">
<stop stop-color="#FF0303"/>
<stop offset="0.1" stop-color="#F60505"/>
<stop offset="0.25" stop-color="#DF0A0C"/>
<stop offset="0.45" stop-color="#BA1417"/>
<stop offset="0.67" stop-color="#852126"/>
<stop offset="0.92" stop-color="#443239"/>
<stop offset="1" stop-color="#2E3840"/>
</linearGradient>
<linearGradient id="paint3_linear_526_654" x1="60.6548" y1="36.1841" x2="-11.4515" y2="36.1841" gradientUnits="userSpaceOnUse">
<stop stop-color="#F9DBBB"/>
<stop offset="0.04" stop-color="#FAAF95"/>
<stop offset="0.1" stop-color="#FB7E6B"/>
<stop offset="0.16" stop-color="#FC5548"/>
<stop offset="0.21" stop-color="#FD352D"/>
<stop offset="0.27" stop-color="#FE1E19"/>
<stop offset="0.32" stop-color="#FE100E"/>
<stop offset="0.36" stop-color="#FF0C0A"/>
<stop offset="0.48" stop-color="#DB1313"/>
<stop offset="0.76" stop-color="#81262A"/>
<stop offset="1" stop-color="#2E3840"/>
</linearGradient>
<linearGradient id="paint4_linear_526_654" x1="48.7194" y1="31.7322" x2="50.095" y2="33.1078" gradientUnits="userSpaceOnUse">
<stop stop-color="#F9DBBB"/>
<stop offset="0.04" stop-color="#FAAF95"/>
<stop offset="0.1" stop-color="#FB7E6B"/>
<stop offset="0.16" stop-color="#FC5548"/>
<stop offset="0.21" stop-color="#FD352D"/>
<stop offset="0.27" stop-color="#FE1E19"/>
<stop offset="0.32" stop-color="#FE100E"/>
<stop offset="0.36" stop-color="#FF0C0A"/>
<stop offset="0.48" stop-color="#DB1313"/>
<stop offset="0.76" stop-color="#81262A"/>
<stop offset="1" stop-color="#2E3840"/>
</linearGradient>
<linearGradient id="paint5_linear_526_654" x1="56.1177" y1="35.879" x2="54.502" y2="34.2633" gradientUnits="userSpaceOnUse">
<stop stop-color="#F9DBBB"/>
<stop offset="0.04" stop-color="#FAAF95"/>
<stop offset="0.1" stop-color="#FB7E6B"/>
<stop offset="0.16" stop-color="#FC5548"/>
<stop offset="0.21" stop-color="#FD352D"/>
<stop offset="0.27" stop-color="#FE1E19"/>
<stop offset="0.32" stop-color="#FE100E"/>
<stop offset="0.36" stop-color="#FF0C0A"/>
<stop offset="0.48" stop-color="#DB1313"/>
<stop offset="0.76" stop-color="#81262A"/>
<stop offset="1" stop-color="#2E3840"/>
</linearGradient>
<linearGradient id="paint6_linear_526_654" x1="53.2114" y1="40.1108" x2="51.7908" y2="37.6448" gradientUnits="userSpaceOnUse">
<stop stop-color="#F9DBBB"/>
<stop offset="0.04" stop-color="#FAAF95"/>
<stop offset="0.1" stop-color="#FB7E6B"/>
<stop offset="0.16" stop-color="#FC5548"/>
<stop offset="0.21" stop-color="#FD352D"/>
<stop offset="0.27" stop-color="#FE1E19"/>
<stop offset="0.32" stop-color="#FE100E"/>
<stop offset="0.36" stop-color="#FF0C0A"/>
<stop offset="0.48" stop-color="#DB1313"/>
<stop offset="0.76" stop-color="#81262A"/>
<stop offset="1" stop-color="#2E3840"/>
</linearGradient>
<linearGradient id="paint7_linear_526_654" x1="45.158" y1="37.0145" x2="47.1688" y2="35.0036" gradientUnits="userSpaceOnUse">
<stop stop-color="#F9DBBB"/>
<stop offset="0.04" stop-color="#FAAF95"/>
<stop offset="0.1" stop-color="#FB7E6B"/>
<stop offset="0.16" stop-color="#FC5548"/>
<stop offset="0.21" stop-color="#FD352D"/>
<stop offset="0.27" stop-color="#FE1E19"/>
<stop offset="0.32" stop-color="#FE100E"/>
<stop offset="0.36" stop-color="#FF0C0A"/>
<stop offset="0.48" stop-color="#DB1313"/>
<stop offset="0.76" stop-color="#81262A"/>
<stop offset="1" stop-color="#2E3840"/>
</linearGradient>
<linearGradient id="paint8_linear_526_654" x1="57.0531" y1="26.8601" x2="53.6566" y2="30.0215" gradientUnits="userSpaceOnUse">
<stop stop-color="#F9DBBB"/>
<stop offset="0.04" stop-color="#FAAF95"/>
<stop offset="0.1" stop-color="#FB7E6B"/>
<stop offset="0.16" stop-color="#FC5548"/>
<stop offset="0.21" stop-color="#FD352D"/>
<stop offset="0.27" stop-color="#FE1E19"/>
<stop offset="0.32" stop-color="#FE100E"/>
<stop offset="0.36" stop-color="#FF0C0A"/>
<stop offset="0.48" stop-color="#DB1313"/>
<stop offset="0.76" stop-color="#81262A"/>
<stop offset="1" stop-color="#2E3840"/>
</linearGradient>
</defs>
</svg>
