<svg width="25" height="24" viewBox="0 0 25 24" fill="none" xmlns="http://www.w3.org/2000/svg">
<path d="M12.5206 2.91003C9.21058 2.91003 6.52058 5.60003 6.52058 8.91003V11.8C6.52058 12.41 6.26058 13.34 5.95058 13.86L4.80058 15.77C4.09058 16.95 4.58058 18.26 5.88058 18.7C10.1906 20.14 14.8406 20.14 19.1506 18.7C20.3606 18.3 20.8906 16.87 20.2306 15.77L19.0806 13.86C18.7806 13.34 18.5206 12.41 18.5206 11.8V8.91003C18.5206 5.61003 15.8206 2.91003 12.5206 2.91003Z" stroke="white" stroke-width="1.5" stroke-miterlimit="10" stroke-linecap="round"/>
<path d="M14.3699 3.19994C14.0599 3.10994 13.7399 3.03994 13.4099 2.99994C12.4499 2.87994 11.5299 2.94994 10.6699 3.19994C10.9599 2.45994 11.6799 1.93994 12.5199 1.93994C13.3599 1.93994 14.0799 2.45994 14.3699 3.19994Z" stroke="white" stroke-width="1.5" stroke-miterlimit="10" stroke-linecap="round" stroke-linejoin="round"/>
<path d="M15.5195 19.0601C15.5195 20.7101 14.1695 22.0601 12.5195 22.0601C11.6995 22.0601 10.9395 21.7201 10.3995 21.1801C9.85953 20.6401 9.51953 19.8801 9.51953 19.0601" stroke="white" stroke-width="1.5" stroke-miterlimit="10"/>
</svg>
