<svg width="22" height="29" viewBox="0 0 22 29" fill="none" xmlns="http://www.w3.org/2000/svg">
<path d="M22 11.0263C22 15.8158 15.2992 24.3509 12.3567 27.8684C11.6508 28.7105 10.34 28.7105 9.64333 27.8684C6.70083 24.3509 0 15.8158 0 11.0263C0 5.21053 4.9225 0.5 11 0.5C17.0775 0.5 22 5.21053 22 11.0263ZM11 13.8333C11.9725 13.8333 12.9051 13.4637 13.5927 12.8056C14.2804 12.1476 14.6667 11.2551 14.6667 10.3246C14.6667 9.39398 14.2804 8.50151 13.5927 7.84348C12.9051 7.18546 11.9725 6.81579 11 6.81579C10.0275 6.81579 9.09491 7.18546 8.40728 7.84348C7.71964 8.50151 7.33333 9.39398 7.33333 10.3246C7.33333 11.2551 7.71964 12.1476 8.40728 12.8056C9.09491 13.4637 10.0275 13.8333 11 13.8333Z" fill="black"/>
</svg>
