<svg width="24" height="25" viewBox="0 0 24 25" fill="none" xmlns="http://www.w3.org/2000/svg">
<path d="M2.9375 -6.10352e-05H14.1875C14.8505 -6.10352e-05 15.4864 0.263331 15.9553 0.732172C16.4241 1.20101 16.6875 1.8369 16.6875 2.49994V4.99994H14.1875V2.49994H2.9375V22.4999H14.1875V19.9999H16.6875V22.4999C16.6875 23.163 16.4241 23.7989 15.9553 24.2677C15.4864 24.7365 14.8505 24.9999 14.1875 24.9999H2.9375C2.27446 24.9999 1.63857 24.7365 1.16973 24.2677C0.700892 23.7989 0.4375 23.163 0.4375 22.4999V2.49994C0.4375 1.8369 0.700892 1.20101 1.16973 0.732172C1.63857 0.263331 2.27446 -6.10352e-05 2.9375 -6.10352e-05Z" fill="white"/>
<path d="M15.55 16.9874L17.3125 18.7499L23.5625 12.4999L17.3125 6.24994L15.55 8.01244L18.775 11.2499H6.6875V13.7499H18.775L15.55 16.9874Z" fill="white"/>
</svg>
