<svg width="28" height="29" viewBox="0 0 28 29" fill="none" xmlns="http://www.w3.org/2000/svg">
<path d="M22.4463 7.05721H21.9797L18.0363 3.11387C17.7213 2.79887 17.208 2.79887 16.8813 3.11387C16.5663 3.42887 16.5663 3.94221 16.8813 4.26887L19.6697 7.05721H8.32967L11.118 4.26887C11.433 3.95387 11.433 3.44054 11.118 3.11387C10.803 2.79887 10.2897 2.79887 9.96301 3.11387L6.03134 7.05721H5.56467C4.51467 7.05721 2.33301 7.05721 2.33301 10.0439C2.33301 11.1755 2.56634 11.9222 3.05634 12.4122C3.33634 12.7039 3.67467 12.8555 4.03634 12.9372C4.37467 13.0189 4.73634 13.0305 5.08634 13.0305H22.913C23.2747 13.0305 23.613 13.0072 23.9397 12.9372C24.9197 12.7039 25.6663 12.0039 25.6663 10.0439C25.6663 7.05721 23.4847 7.05721 22.4463 7.05721Z" fill="white"/>
<path d="M22.2248 14.5472H5.68144C4.95811 14.5472 4.40977 15.1888 4.52644 15.9005L5.50644 21.8972C5.83311 23.9038 6.70811 26.2138 10.5931 26.2138H17.1381C21.0698 26.2138 21.7698 24.2422 22.1898 22.0372L23.3681 15.9355C23.5081 15.2122 22.9598 14.5472 22.2248 14.5472ZM12.3781 22.0722C12.3781 22.5272 12.0164 22.8888 11.5731 22.8888C11.1181 22.8888 10.7564 22.5272 10.7564 22.0722V18.2222C10.7564 17.7788 11.1181 17.4055 11.5731 17.4055C12.0164 17.4055 12.3781 17.7788 12.3781 18.2222V22.0722ZM17.3714 22.0722C17.3714 22.5272 17.0098 22.8888 16.5548 22.8888C16.1114 22.8888 15.7381 22.5272 15.7381 22.0722V18.2222C15.7381 17.7788 16.1114 17.4055 16.5548 17.4055C17.0098 17.4055 17.3714 17.7788 17.3714 18.2222V22.0722Z" fill="white"/>
</svg>
