<svg width="28" height="29" viewBox="0 0 28 29" fill="none" xmlns="http://www.w3.org/2000/svg">
<path d="M20.4512 9.61216C20.3696 9.60049 20.2879 9.60049 20.2062 9.61216C18.3979 9.55383 16.9629 8.07216 16.9629 6.25216C16.9629 4.39716 18.4679 2.88049 20.3346 2.88049C22.1896 2.88049 23.7062 4.38549 23.7062 6.25216C23.6946 8.07216 22.2596 9.55383 20.4512 9.61216Z" fill="white"/>
<path d="M24.2545 17.6972C22.9479 18.5722 21.1162 18.8988 19.4245 18.6772C19.8679 17.7205 20.1012 16.6588 20.1129 15.5388C20.1129 14.3722 19.8562 13.2638 19.3662 12.2955C21.0929 12.0622 22.9245 12.3888 24.2429 13.2638C26.0862 14.4772 26.0862 16.4722 24.2545 17.6972Z" fill="white"/>
<path d="M7.51286 9.61216C7.59453 9.60049 7.6762 9.60049 7.75786 9.61216C9.5662 9.55383 11.0012 8.07216 11.0012 6.25216C11.0012 4.38549 9.4962 2.88049 7.62953 2.88049C5.77453 2.88049 4.26953 4.38549 4.26953 6.25216C4.26953 8.07216 5.70453 9.55383 7.51286 9.61216Z" fill="white"/>
<path d="M7.64132 15.5389C7.64132 16.6705 7.88631 17.7439 8.32965 18.7122C6.68465 18.8872 4.96965 18.5372 3.70965 17.7089C1.86632 16.4839 1.86632 14.4889 3.70965 13.2639C4.95798 12.4239 6.71965 12.0855 8.37631 12.2722C7.89798 13.2522 7.64132 14.3605 7.64132 15.5389Z" fill="white"/>
<path d="M14.1396 19.0622C14.0463 19.0505 13.9413 19.0505 13.8363 19.0622C11.6896 18.9922 9.97461 17.2305 9.97461 15.0605C9.98628 12.8438 11.7713 11.0472 13.9996 11.0472C16.2163 11.0472 18.0129 12.8438 18.0129 15.0605C18.0013 17.2305 16.2979 18.9922 14.1396 19.0622Z" fill="white"/>
<path d="M10.3486 21.4772C8.58693 22.6555 8.58693 24.5922 10.3486 25.7589C12.3553 27.1005 15.6453 27.1005 17.6519 25.7589C19.4136 24.5805 19.4136 22.6439 17.6519 21.4772C15.6569 20.1355 12.3669 20.1355 10.3486 21.4772Z" fill="white"/>
</svg>
