<svg width="25" height="26" viewBox="0 0 25 26" fill="none" xmlns="http://www.w3.org/2000/svg">
<path d="M24.2154 13.332C23.9684 13.0835 23.6747 12.8863 23.3512 12.7516C23.0278 12.6169 22.6809 12.5474 22.3305 12.5472H22.3216C21.9697 12.5461 21.6211 12.6149 21.296 12.7497C20.9709 12.8844 20.6758 13.0823 20.4278 13.332L16.0519 17.7079C16.0037 17.035 15.7028 16.4052 15.2097 15.9449C14.7166 15.4845 14.0676 15.2276 13.393 15.2258H7.14292C5.95934 15.2272 4.82464 15.698 3.98773 16.5349C3.15081 17.3718 2.68001 18.5065 2.67859 19.6901V20.2856L0 23.8535L1.42858 24.9249L4.46432 20.8803V19.6901C4.46503 18.9799 4.74747 18.299 5.24965 17.7968C5.75183 17.2946 6.43273 17.0122 7.14292 17.0115H13.393C13.6298 17.0115 13.8569 17.1055 14.0243 17.273C14.1918 17.4404 14.2858 17.6675 14.2858 17.9043C14.2858 18.1411 14.1918 18.3683 14.0243 18.5357C13.8569 18.7031 13.6298 18.7972 13.393 18.7972H9.82151V20.5829H14.2224C14.6916 20.5842 15.1564 20.4924 15.5898 20.3127C16.0232 20.1331 16.4167 19.8693 16.7475 19.5365L21.6904 14.5945C21.773 14.5113 21.8714 14.4453 21.9798 14.4004C22.0881 14.3555 22.2043 14.3326 22.3216 14.3329H22.3243C22.5006 14.3335 22.6728 14.3862 22.8192 14.4845C22.9656 14.5829 23.0796 14.7223 23.1468 14.8853C23.2141 15.0483 23.2315 15.2276 23.197 15.4005C23.1625 15.5735 23.0775 15.7323 22.9529 15.857L16.3332 22.4767C16.085 22.7264 15.7897 22.9243 15.4645 23.059C15.1393 23.1937 14.7905 23.2626 14.4385 23.2615H8.03578V25.0473H14.4385C15.0251 25.0489 15.6062 24.9342 16.1482 24.7096C16.6901 24.4851 17.1821 24.1553 17.5957 23.7392L24.2154 17.1195C24.4641 16.8709 24.6615 16.5756 24.7961 16.2507C24.9307 15.9258 25 15.5775 25 15.2258C25 14.874 24.9307 14.5258 24.7961 14.2008C24.6615 13.8759 24.4641 13.5806 24.2154 13.332ZM17.4876 5.92746L14.2858 8.9757V0.0470581H12.5001V8.9757L9.29829 5.92746L8.03578 7.18997L13.393 12.5472L18.7502 7.18997L17.4876 5.92746Z" fill="white"/>
</svg>
