<svg width="25" height="17" viewBox="0 0 25 17" fill="none" xmlns="http://www.w3.org/2000/svg">
<path d="M12.5 0.994995C13.4669 0.994995 14.3943 1.37911 15.078 2.06284C15.7617 2.74656 16.1458 3.67389 16.1458 4.64083C16.1458 5.60776 15.7617 6.5351 15.078 7.21882C14.3943 7.90255 13.4669 8.28666 12.5 8.28666C11.5331 8.28666 10.6057 7.90255 9.92201 7.21882C9.23828 6.5351 8.85417 5.60776 8.85417 4.64083C8.85417 3.67389 9.23828 2.74656 9.92201 2.06284C10.6057 1.37911 11.5331 0.994995 12.5 0.994995ZM5.20833 3.59916C5.79167 3.59916 6.33333 3.75541 6.80208 4.03666C6.64583 5.52625 7.08333 7.00541 7.97917 8.16166C7.45833 9.16166 6.41667 9.84916 5.20833 9.84916C4.37953 9.84916 3.58468 9.51992 2.99862 8.93387C2.41257 8.34782 2.08333 7.55296 2.08333 6.72416C2.08333 5.89536 2.41257 5.1005 2.99862 4.51445C3.58468 3.9284 4.37953 3.59916 5.20833 3.59916ZM19.7917 3.59916C20.6205 3.59916 21.4153 3.9284 22.0014 4.51445C22.5874 5.1005 22.9167 5.89536 22.9167 6.72416C22.9167 7.55296 22.5874 8.34782 22.0014 8.93387C21.4153 9.51992 20.6205 9.84916 19.7917 9.84916C18.5833 9.84916 17.5417 9.16166 17.0208 8.16166C17.929 6.98918 18.3506 5.51187 18.1979 4.03666C18.6667 3.75541 19.2083 3.59916 19.7917 3.59916ZM5.72917 14.2762C5.72917 12.12 8.76042 10.37 12.5 10.37C16.2396 10.37 19.2708 12.12 19.2708 14.2762V16.0992H5.72917V14.2762ZM0 16.0992V14.5367C0 13.0887 1.96875 11.87 4.63542 11.5158C4.02083 12.2242 3.64583 13.2033 3.64583 14.2762V16.0992H0ZM25 16.0992H21.3542V14.2762C21.3542 13.2033 20.9792 12.2242 20.3646 11.5158C23.0312 11.87 25 13.0887 25 14.5367V16.0992Z" fill="white"/>
</svg>
