<svg width="25" height="17" viewBox="0 0 25 17" fill="none" xmlns="http://www.w3.org/2000/svg">
<path d="M12.5 0.995087C13.4669 0.995087 14.3943 1.3792 15.078 2.06293C15.7617 2.74665 16.1458 3.67399 16.1458 4.64092C16.1458 5.60786 15.7617 6.53519 15.078 7.21891C14.3943 7.90264 13.4669 8.28675 12.5 8.28675C11.5331 8.28675 10.6057 7.90264 9.92201 7.21891C9.23828 6.53519 8.85417 5.60786 8.85417 4.64092C8.85417 3.67399 9.23828 2.74665 9.92201 2.06293C10.6057 1.3792 11.5331 0.995087 12.5 0.995087ZM5.20833 3.59925C5.79167 3.59925 6.33333 3.7555 6.80208 4.03675C6.64583 5.52634 7.08333 7.0055 7.97917 8.16175C7.45833 9.16175 6.41667 9.84925 5.20833 9.84925C4.37953 9.84925 3.58468 9.52001 2.99862 8.93396C2.41257 8.34791 2.08333 7.55306 2.08333 6.72425C2.08333 5.89545 2.41257 5.1006 2.99862 4.51454C3.58468 3.92849 4.37953 3.59925 5.20833 3.59925ZM19.7917 3.59925C20.6205 3.59925 21.4153 3.92849 22.0014 4.51454C22.5874 5.1006 22.9167 5.89545 22.9167 6.72425C22.9167 7.55306 22.5874 8.34791 22.0014 8.93396C21.4153 9.52001 20.6205 9.84925 19.7917 9.84925C18.5833 9.84925 17.5417 9.16175 17.0208 8.16175C17.929 6.98927 18.3506 5.51196 18.1979 4.03675C18.6667 3.7555 19.2083 3.59925 19.7917 3.59925ZM5.72917 14.2763C5.72917 12.1201 8.76042 10.3701 12.5 10.3701C16.2396 10.3701 19.2708 12.1201 19.2708 14.2763V16.0993H5.72917V14.2763ZM0 16.0993V14.5368C0 13.0888 1.96875 11.8701 4.63542 11.5159C4.02083 12.2243 3.64583 13.2034 3.64583 14.2763V16.0993H0ZM25 16.0993H21.3542V14.2763C21.3542 13.2034 20.9792 12.2243 20.3646 11.5159C23.0312 11.8701 25 13.0888 25 14.5368V16.0993Z" fill="#2E3840"/>
</svg>
