<svg width="32" height="32" viewBox="0 0 32 32" fill="none" xmlns="http://www.w3.org/2000/svg">
<path d="M28.0942 6.97334C25.9475 6.76001 23.8009 6.60001 21.6409 6.48001V6.46667L21.3475 4.73334C21.1475 3.50667 20.8542 1.66667 17.7342 1.66667H14.2409C11.1342 1.66667 10.8409 3.42667 10.6275 4.72001L10.3475 6.42667C9.10753 6.50667 7.86753 6.58667 6.62753 6.70667L3.90753 6.97334C3.34753 7.02667 2.94753 7.52001 3.00086 8.06667C3.05419 8.61334 3.53419 9.01334 4.09419 8.96001L6.81419 8.69334C13.8009 8.00001 20.8409 8.26667 27.9075 8.97334C27.9475 8.97334 27.9742 8.97334 28.0142 8.97334C28.5209 8.97334 28.9609 8.58667 29.0142 8.06667C29.0542 7.52001 28.6542 7.02667 28.0942 6.97334Z" fill="white"/>
<path d="M25.6403 10.8533C25.3203 10.52 24.8803 10.3333 24.427 10.3333H7.57365C7.12032 10.3333 6.66698 10.52 6.36032 10.8533C6.05365 11.1867 5.88032 11.64 5.90698 12.1067L6.73365 25.7867C6.88032 27.8133 7.06698 30.3467 11.7203 30.3467H20.2803C24.9337 30.3467 25.1203 27.8267 25.267 25.7867L26.0937 12.12C26.1203 11.64 25.947 11.1867 25.6403 10.8533ZM18.2137 23.6667H13.7737C13.227 23.6667 12.7737 23.2133 12.7737 22.6667C12.7737 22.12 13.227 21.6667 13.7737 21.6667H18.2137C18.7603 21.6667 19.2137 22.12 19.2137 22.6667C19.2137 23.2133 18.7603 23.6667 18.2137 23.6667ZM19.3337 18.3333H12.667C12.1203 18.3333 11.667 17.88 11.667 17.3333C11.667 16.7867 12.1203 16.3333 12.667 16.3333H19.3337C19.8803 16.3333 20.3337 16.7867 20.3337 17.3333C20.3337 17.88 19.8803 18.3333 19.3337 18.3333Z" fill="white"/>
</svg>
