<svg width="83" height="84" viewBox="0 0 83 84" fill="none" xmlns="http://www.w3.org/2000/svg">
<path d="M41.5 46.9455C42.9169 46.9455 44.32 46.6664 45.6291 46.1241C46.9382 45.5819 48.1277 44.7871 49.1296 43.7852C50.1316 42.7832 50.9264 41.5937 51.4686 40.2846C52.0109 38.9755 52.29 37.5724 52.29 36.1555C52.29 34.7385 52.0109 33.3354 51.4686 32.0263C50.9264 30.7172 50.1316 29.5277 49.1296 28.5258C48.1277 27.5239 46.9382 26.7291 45.6291 26.1868C44.32 25.6446 42.9169 25.3655 41.5 25.3655C38.6383 25.3655 35.8938 26.5023 33.8703 28.5258C31.8468 30.5493 30.71 33.2938 30.71 36.1555C30.71 39.0172 31.8468 41.7616 33.8703 43.7852C35.8938 45.8087 38.6383 46.9455 41.5 46.9455Z" stroke="#2E3840" stroke-width="5"/>
<path d="M12.5192 29.8613C19.3321 -0.0878276 63.7026 -0.0532435 70.4809 29.8959C74.458 47.4643 63.5296 62.3351 53.9501 71.5343C50.6026 74.7627 46.1334 76.5668 41.4828 76.5668C36.8322 76.5668 32.3629 74.7627 29.0155 71.5343C19.4705 62.3351 8.54213 47.4297 12.5192 29.8613Z" stroke="#2E3840" stroke-width="5"/>
</svg>
