<svg width="40" height="35" viewBox="0 0 40 35" fill="none" xmlns="http://www.w3.org/2000/svg">
<path d="M28.5271 8.68217L39.6705 14.2636V29.4186L28.5271 35L17.3643 29.4574V23.2364L11.1628 26.3178L0 20.7752L0.0193798 5.5814L11.1628 0L22.3062 5.5814L22.3256 11.8023L28.5271 8.68217ZM35.6589 15.0194L28.5271 11.4729L21.3953 15.0194L28.5271 18.5853L35.6589 15.0194ZM18.2946 6.33721L11.1628 2.7907L4.03101 6.33721L11.1628 9.9031L18.2946 6.33721ZM2.5 8.35271L2.48062 19.2248L9.92248 22.9264V12.0543L2.5 8.35271ZM12.4031 22.9264L17.3837 20.4651V14.2636L19.845 13.0426L19.8256 8.35271L12.4031 12.0543V22.9264ZM19.8643 17.0349L19.845 27.907L27.2868 31.6085V20.7364L19.8643 17.0349ZM29.7674 31.6085L37.1899 27.8876V17.0349L29.7674 20.7364V31.6085Z" fill="#2E3840"/>
</svg>
