<svg width="64" height="65" viewBox="0 0 64 65" fill="none" xmlns="http://www.w3.org/2000/svg">
<path d="M61.0788 50.9624C61.0788 52.0124 60.8455 53.0916 60.3497 54.1416C59.8538 55.1916 59.2122 56.1833 58.3663 57.1166C56.9372 58.6916 55.3622 59.8291 53.583 60.5583C51.833 61.2874 49.9372 61.6666 47.8955 61.6666C44.9205 61.6666 41.7413 60.9666 38.3872 59.5374C35.033 58.1083 31.6788 56.1833 28.3538 53.7624C24.965 51.2835 21.7671 48.5536 18.7872 45.5957C15.8377 42.6266 13.1175 39.4383 10.6497 36.0583C8.25801 32.7333 6.33301 29.4083 4.93301 26.1124C3.53301 22.7874 2.83301 19.6083 2.83301 16.5749C2.83301 14.5916 3.18301 12.6958 3.88301 10.9458C4.58301 9.16659 5.69134 7.53325 7.23717 6.07492C9.10384 4.23742 11.1455 3.33325 13.3038 3.33325C14.1205 3.33325 14.9372 3.50825 15.6663 3.85825C16.4247 4.20825 17.0955 4.73325 17.6205 5.49159L24.3872 15.0291C24.9122 15.7583 25.2913 16.4291 25.5538 17.0708C25.8163 17.6833 25.9622 18.2958 25.9622 18.8499C25.9622 19.5499 25.758 20.2499 25.3497 20.9208C24.9705 21.5916 24.4163 22.2916 23.7163 22.9916L21.4997 25.2957C21.1788 25.6166 21.033 25.9958 21.033 26.4624C21.033 26.6958 21.0622 26.8999 21.1205 27.1333C21.208 27.3666 21.2955 27.5416 21.3538 27.7166C21.8788 28.6791 22.783 29.9333 24.0663 31.4499C25.3788 32.9666 26.7788 34.5124 28.2955 36.0583C29.8705 37.6041 31.3872 39.0332 32.933 40.3457C34.4497 41.6291 35.7038 42.5041 36.6955 43.0291C36.8413 43.0874 37.0163 43.1749 37.2205 43.2624C37.4538 43.3499 37.6872 43.3791 37.9497 43.3791C38.4455 43.3791 38.8247 43.2041 39.1455 42.8833L41.3622 40.6958C42.0913 39.9666 42.7913 39.4124 43.4622 39.0624C44.133 38.6541 44.8038 38.4499 45.533 38.4499C46.0872 38.4499 46.6705 38.5666 47.3122 38.8291C47.9538 39.0916 48.6247 39.4708 49.3538 39.9666L59.008 46.8207C59.7663 47.3457 60.2913 47.9582 60.6122 48.6874C60.9038 49.4166 61.0788 50.1457 61.0788 50.9624Z" stroke="#2E3840" stroke-width="5" stroke-miterlimit="10"/>
</svg>
